<?xml version="1.0" standalone="no"?>
<!DOCTYPE svg PUBLIC "-//W3C//DTD SVG 20010904//EN"
 "http://www.w3.org/TR/2001/REC-SVG-20010904/DTD/svg10.dtd">
<svg version="1.0" xmlns="http://www.w3.org/2000/svg"
 width="300.000000pt" height="146.000000pt" viewBox="0 0 300.000000 146.000000"
 preserveAspectRatio="xMidYMid meet">

<g transform="translate(0.000000,146.000000) scale(0.100000,-0.100000)"
fill="#FAFAFA" stroke="none">
<path d="M985 1451 c-53 -14 -92 -39 -159 -105 -68 -66 -79 -85 -48 -87 9 -1
-3 -5 -27 -10 -47 -9 -103 -40 -84 -46 7 -3 22 1 34 8 19 10 21 9 16 -6 -4 -9
-7 -18 -7 -20 0 -2 -22 -1 -48 2 -29 3 -58 1 -70 -6 -24 -13 -196 -240 -260
-343 -104 -167 -300 -577 -287 -598 4 -6 21 -17 38 -25 29 -14 30 -15 5 -10
-14 3 -34 8 -43 11 -15 6 -15 4 0 -31 l15 -39 -32 -33 c-17 -18 -28 -33 -22
-33 5 0 75 -18 156 -39 l146 -39 79 55 c43 31 80 57 82 59 2 2 7 24 12 50 11
59 18 66 161 176 111 86 137 115 123 138 -15 24 -54 8 -111 -46 -34 -32 -45
-47 -27 -34 18 11 35 25 38 30 3 6 16 15 28 20 24 12 -38 -47 -88 -83 -21 -14
-26 -16 -16 -4 8 10 9 17 3 17 -6 0 4 33 23 73 36 80 127 335 176 495 22 74
37 107 53 117 53 35 60 103 15 148 -31 30 -31 31 -14 59 9 15 13 33 9 39 -18
30 118 119 184 119 72 0 135 -49 148 -114 9 -53 -13 -110 -78 -198 -71 -96
-105 -165 -115 -234 -4 -31 -19 -67 -40 -99 -93 -139 -100 -377 -11 -409 14
-5 33 -6 41 -3 50 19 77 181 58 352 -7 63 -9 120 -5 126 14 23 95 51 129 45
93 -18 98 -143 9 -214 -19 -15 -44 -29 -55 -32 -12 -3 -28 -14 -35 -25 -13
-19 -11 -20 56 -20 54 0 75 -4 97 -21 33 -24 57 -69 49 -90 -4 -12 -11 -11
-38 6 -63 38 -167 17 -198 -40 -9 -17 -8 -27 5 -46 39 -60 152 -59 216 2 l26
25 38 -25 c69 -47 142 -43 184 10 24 31 27 30 35 -6 4 -23 11 -30 29 -30 32 0
61 34 107 124 31 62 46 81 76 97 21 10 40 17 42 14 3 -3 -11 -37 -31 -76 -55
-105 -47 -165 20 -157 20 2 38 17 62 50 l35 47 17 -39 c21 -46 44 -60 100 -60
36 0 47 6 78 38 47 50 68 58 77 29 19 -64 89 -87 147 -48 35 23 92 101 107
146 8 24 23 39 52 54 23 11 43 19 45 17 2 -2 -12 -36 -32 -77 -51 -106 -46
-159 15 -159 31 0 53 22 103 102 53 83 118 109 187 73 52 -27 66 -81 34 -130
-19 -30 -8 -112 16 -118 9 -2 20 -18 23 -36 4 -17 11 -31 17 -31 13 0 13 12 0
44 -10 28 -8 31 37 40 29 7 32 5 38 -23 11 -49 29 -51 21 -3 -5 34 -3 42 9 42
8 0 15 5 15 10 0 6 -4 10 -8 10 -5 0 -14 18 -21 40 -6 22 -21 45 -32 51 -26
13 -49 37 -72 72 -32 49 -74 69 -141 64 -54 -3 -62 -7 -95 -45 -20 -22 -50
-60 -66 -84 -33 -46 -59 -59 -68 -34 -5 13 8 76 41 190 5 17 1 18 -50 12 -45
-6 -57 -4 -61 8 -8 21 -46 20 -54 -1 -4 -10 2 -23 15 -34 28 -22 27 -29 -3
-88 -28 -56 -77 -101 -109 -101 -25 0 -66 38 -66 61 0 9 17 25 38 36 53 31 84
67 80 95 -2 19 -10 24 -41 26 -53 5 -92 -26 -114 -89 -10 -28 -26 -55 -35 -60
-16 -9 -18 -5 -18 31 0 92 -76 154 -123 102 -38 -41 -8 -131 49 -152 21 -8 23
-12 12 -35 -23 -52 -78 -44 -102 16 -22 54 -20 89 10 189 13 47 27 113 31 147
5 53 3 64 -11 69 -23 9 -60 -27 -75 -74 -7 -20 -15 -90 -18 -156 -6 -113 -7
-120 -37 -160 -18 -22 -40 -42 -49 -44 -24 -5 -22 55 3 136 11 35 20 68 20 74
0 7 -20 8 -55 3 -46 -5 -55 -4 -55 9 0 22 -49 21 -57 -1 -4 -10 2 -23 16 -35
29 -22 24 -44 -25 -128 -58 -99 -80 -78 -64 60 5 47 10 88 10 93 0 15 -30 6
-41 -12 -12 -18 -12 -18 -30 0 -25 25 -80 24 -111 -1 -37 -29 -51 -71 -46
-140 2 -33 2 -60 0 -60 -2 0 -17 8 -32 17 -26 15 -28 20 -24 62 4 35 0 54 -15
78 -20 32 -86 73 -117 73 -10 0 5 20 39 53 87 82 89 158 7 200 -39 20 -104 16
-152 -9 -42 -22 -48 -18 -36 24 15 55 44 109 99 183 66 90 82 131 77 199 -5
64 -32 111 -79 136 -36 18 -113 26 -154 15z m-129 -273 c12 -24 13 -33 2 -55
-16 -33 -36 -40 -45 -16 -3 10 -12 25 -20 35 -13 14 -12 20 1 47 19 36 40 32
62 -11z m-76 -204 c-60 -204 -153 -461 -200 -553 -45 -90 -78 -126 -134 -150
-5 -2 19 48 52 110 79 148 149 313 223 524 33 94 62 177 65 185 5 13 7 13 15
-1 6 -12 0 -48 -21 -115z m-166 -210 c-91 -210 -233 -499 -241 -491 -2 3 25
63 60 133 35 71 108 227 162 347 54 119 100 216 102 213 2 -2 -35 -93 -83
-202z m1352 -61 c-9 -42 -19 -79 -23 -82 -10 -10 7 157 19 186 l12 28 4 -28
c2 -15 -4 -62 -12 -104z m-968 -160 c-2 -104 -6 -136 -19 -148 -14 -14 -17
-14 -33 4 -39 43 -29 238 17 345 l22 51 8 -60 c4 -33 7 -119 5 -192z m707 97
c3 -5 1 -10 -4 -10 -6 0 -11 5 -11 10 0 6 2 10 4 10 3 0 8 -4 11 -10z m710 0
c3 -5 1 -10 -4 -10 -6 0 -11 5 -11 10 0 6 2 10 4 10 3 0 8 -4 11 -10z m-910
-16 c71 -27 42 -204 -33 -204 -67 0 -82 151 -19 195 24 17 29 18 52 9z m549
-26 c20 -31 31 -104 17 -112 -5 -4 -19 -1 -30 6 -37 23 -54 91 -29 116 17 17
26 15 42 -10z m234 -4 c2 -15 -9 -31 -34 -52 -21 -17 -41 -29 -45 -27 -9 6 6
72 22 91 17 21 53 14 57 -12z m-1058 -104 c22 -11 40 -25 40 -31 0 -60 -131
-101 -171 -53 -19 23 -14 66 11 86 29 24 71 23 120 -2z m1668 -52 c-6 -18 -28
-21 -28 -4 0 9 7 16 16 16 9 0 14 -5 12 -12z m-2670 -127 c41 -11 76 -21 78
-24 10 -9 -20 -57 -35 -57 -21 0 -161 37 -169 44 -10 11 18 56 35 56 10 0 51
-9 91 -19z m302 -30 c0 -11 -65 -61 -79 -61 -20 0 -12 18 20 44 30 26 59 34
59 17z m-94 -65 c7 -8 19 -16 26 -19 9 -3 5 -13 -12 -33 -14 -16 -17 -22 -7
-15 9 7 17 9 17 4 0 -5 -29 -25 -65 -44 l-64 -34 -113 29 c-126 32 -148 41
-148 60 0 11 19 8 83 -10 45 -13 107 -27 138 -30 l56 -7 34 57 c19 31 35 56
37 56 2 0 10 -6 18 -14z m-358 -110 c12 1 22 -3 22 -8 0 -5 5 -6 10 -3 6 3 10
2 10 -4 0 -5 -4 -13 -10 -16 -5 -3 -10 -1 -10 5 0 6 -4 8 -10 5 -5 -3 -10 -1
-10 6 0 8 -4 8 -15 -1 -11 -9 -15 -9 -15 -1 0 7 -4 9 -10 6 -5 -3 -10 -2 -10
3 0 13 13 23 19 14 3 -4 16 -7 29 -6z m72 -20 c0 -2 -7 -9 -15 -16 -13 -11
-14 -10 -9 4 5 14 24 23 24 12z m11 -19 c-10 -9 -11 -8 -5 6 3 10 9 15 12 12
3 -3 0 -11 -7 -18z m20 -10 c-10 -9 -11 -8 -5 6 3 10 9 15 12 12 3 -3 0 -11
-7 -18z m50 -10 c-10 -9 -11 -8 -5 6 3 10 9 15 12 12 3 -3 0 -11 -7 -18z m33
-2 c-4 -8 -8 -15 -10 -15 -2 0 -4 7 -4 15 0 8 4 15 10 15 5 0 7 -7 4 -15z m17
-12 c-12 -20 -14 -14 -5 12 4 9 9 14 11 11 3 -2 0 -13 -6 -23z m29 2 c0 -8 -4
-15 -10 -15 -5 0 -7 7 -4 15 4 8 8 15 10 15 2 0 4 -7 4 -15z"/>
<path d="M1523 246 c-34 -16 -50 -50 -38 -85 5 -16 23 -26 66 -38 32 -9 59
-20 59 -24 0 -15 -22 -21 -33 -10 -16 16 -97 14 -97 -2 0 -38 65 -63 136 -52
52 7 84 34 84 69 0 33 -23 54 -76 67 -66 17 -63 28 6 22 49 -5 60 -3 60 9 0
45 -104 72 -167 44z"/>
<path d="M2055 253 c-83 -21 -111 -127 -50 -188 50 -51 160 -41 195 18 60 98
-27 200 -145 170z m69 -69 c18 -47 -7 -110 -39 -98 -19 8 -28 55 -16 87 12 30
45 37 55 11z"/>
<path d="M1720 145 l0 -105 50 0 50 0 0 35 c0 50 28 48 32 -2 2 -31 7 -39 27
-41 12 -2 34 -1 47 2 23 6 24 9 24 111 l0 105 -50 0 -50 0 0 -35 c0 -24 -5
-35 -15 -35 -10 0 -15 11 -15 35 l0 35 -50 0 -50 0 0 -105z"/>
<path d="M2250 145 l0 -105 44 0 c43 0 45 1 48 33 3 30 6 32 47 38 75 10 104
67 56 114 -22 23 -32 25 -110 25 l-85 0 0 -105z m118 56 c21 -13 10 -46 -16
-49 -17 -3 -22 1 -22 21 0 35 13 45 38 28z"/>
</g>
</svg>
